<svg width="67" height="77" viewBox="0 0 67 77" fill="none" xmlns="http://www.w3.org/2000/svg">
<g clip-path="url(#clip0_156_6)">
<path d="M21.5357 21.6562V28.875H45.4643V21.6562C45.4643 15.009 40.1103 9.625 33.5 9.625C26.8897 9.625 21.5357 15.009 21.5357 21.6562ZM11.9643 28.875V21.6562C11.9643 9.7002 21.6105 0 33.5 0C45.3895 0 55.0357 9.7002 55.0357 21.6562V28.875H57.4286C62.7078 28.875 67 33.1912 67 38.5V67.375C67 72.6838 62.7078 77 57.4286 77H9.57143C4.29219 77 0 72.6838 0 67.375V38.5C0 33.1912 4.29219 28.875 9.57143 28.875H11.9643Z" fill="#AEC6D5"/>
</g>
<defs>
<clipPath id="clip0_156_6">
<rect width="67" height="77" fill="white"/>
</clipPath>
</defs>
</svg>
